<?xml version="1.0" standalone="no"?><!DOCTYPE svg PUBLIC "-//W3C//DTD SVG 1.1//EN" "http://www.w3.org/Graphics/SVG/1.1/DTD/svg11.dtd"><svg t="1705300214749" class="icon" viewBox="0 0 1024 1024" version="1.1" xmlns="http://www.w3.org/2000/svg" p-id="12342" xmlns:xlink="http://www.w3.org/1999/xlink" width="200" height="200"><path d="M512.0512 179.2a332.8 332.8 0 1 1 0 665.6 332.8 332.8 0 1 1 0-665.6z m0 51.2a281.6 281.6 0 1 0 281.6512 281.6 281.6 281.6 0 0 0-281.6-281.6z" fill="#333333" p-id="12343"></path><path d="M510.8736 665.1904a32.1536 32.1536 0 0 1-31.744-32.6144c0-18.0224 14.2336-32.6144 31.744-32.6144 17.5104 0 31.744 14.592 31.744 32.6144a32.1536 32.1536 0 0 1-31.744 32.6144zM599.4496 460.288a89.344 89.344 0 0 1-15.5648 21.8112c-6.0416 6.144-16.8448 16.384-32.4608 30.8736a131.584 131.584 0 0 0-10.3424 10.752 41.1648 41.1648 0 0 0-8.704 16.128 316.928 316.928 0 0 0-3.1744 13.5168c-2.4064 13.6704-9.984 20.48-22.6304 20.48a22.6816 22.6816 0 0 1-16.64-6.656c-4.5056-4.5056-6.7584-11.1104-6.7584-19.968 0-11.008 1.6384-20.5824 4.9152-28.672 3.328-8.0896 7.68-15.1552 13.1584-21.2992 5.4272-6.0928 12.8-13.312 22.016-21.76 8.1408-7.3728 14.0288-12.9024 17.6128-16.6912 3.584-3.7376 6.656-7.8848 9.1648-12.4928a35.4304 35.4304 0 0 0-7.5776-41.5744 40.4992 40.4992 0 0 0-29.2352-10.9056c-13.9776 0-24.2176 3.6864-30.8224 10.9568-6.6048 7.3216-12.1856 18.0224-16.7424 32.256-4.3008 14.848-12.4928 22.272-24.576 22.272a23.7056 23.7056 0 0 1-17.92-7.7824 24.2688 24.2688 0 0 1-7.3216-16.896c0-12.4416 3.84-25.088 11.5712-37.9392a90.624 90.624 0 0 1 33.8944-31.8464c14.848-8.3968 32.1024-12.5952 51.9168-12.5952 18.3808 0 34.6112 3.5328 48.64 10.5472 14.1312 7.0144 24.9856 16.5888 32.6656 28.672 7.68 12.0832 11.52 25.2416 11.52 39.424 0 11.2128-2.2016 20.992-6.6048 29.3888z" fill="#333333" p-id="12344"></path></svg>