<?xml version="1.0" standalone="no"?><!DOCTYPE svg PUBLIC "-//W3C//DTD SVG 1.1//EN" "http://www.w3.org/Graphics/SVG/1.1/DTD/svg11.dtd"><svg t="1702533496385" class="icon" viewBox="0 0 1024 1024" version="1.1" xmlns="http://www.w3.org/2000/svg" p-id="1489" xmlns:xlink="http://www.w3.org/1999/xlink" width="200" height="200"><path d="M512 512m-409.6 0a409.6 409.6 0 1 0 819.2 0 409.6 409.6 0 1 0-819.2 0Z" fill="#C5DDFB" p-id="1490"></path><path d="M271.36 599.04c-5.12-12.8 2.56-28.16 15.36-33.28 12.8-5.12 28.16 2.56 33.28 15.36C348.16 660.48 424.96 716.8 512 716.8c87.04 0 163.84-56.32 192-135.68 5.12-12.8 20.48-20.48 33.28-15.36s20.48 20.48 15.36 33.28C716.8 698.88 622.08 768 512 768c-110.08 0-204.8-69.12-240.64-168.96zM345.6 409.6c-20.48 0-38.4-17.92-38.4-38.4S325.12 332.8 345.6 332.8s38.4 17.92 38.4 38.4-17.92 38.4-38.4 38.4z m332.8 0c-20.48 0-38.4-17.92-38.4-38.4S657.92 332.8 678.4 332.8s38.4 17.92 38.4 38.4-17.92 38.4-38.4 38.4z" fill="#2589FF" p-id="1491"></path></svg>